<svg width="24" height="24" viewBox="0 0 24 24" fill="none" xmlns="http://www.w3.org/2000/svg">
<path d="M2.24609 18.8945H21.0254C21.7285 18.8945 22.2803 18.6943 22.6807 18.2939C23.081 17.8936 23.2812 17.3418 23.2812 16.6387V4.92969C23.2812 4.22656 23.081 3.67643 22.6807 3.2793C22.2803 2.88216 21.7285 2.68359 21.0254 2.68359H2.24609C1.54948 2.68359 1.00098 2.88216 0.600586 3.2793C0.200195 3.67643 0 4.22656 0 4.92969V16.6387C0 17.3418 0.200195 17.8936 0.600586 18.2939C1.00098 18.6943 1.54948 18.8945 2.24609 18.8945ZM2.27539 17.3223C2.06054 17.3223 1.88965 17.2588 1.7627 17.1318C1.63575 17.0049 1.57227 16.834 1.57227 16.6191V4.95898C1.57227 4.73763 1.63575 4.5651 1.7627 4.44141C1.88965 4.31771 2.06054 4.25586 2.27539 4.25586H21.0059C21.2207 4.25586 21.3916 4.31771 21.5186 4.44141C21.6455 4.5651 21.709 4.73763 21.709 4.95898V16.6191C21.709 16.834 21.6455 17.0049 21.5186 17.1318C21.3916 17.2588 21.2207 17.3223 21.0059 17.3223H2.27539ZM8.55469 21.2188H14.7266V18.7676H8.55469V21.2188ZM8.49609 22.3613H14.7852C15 22.3613 15.1839 22.2848 15.3369 22.1318C15.4899 21.9788 15.5664 21.7916 15.5664 21.5703C15.5664 21.349 15.4899 21.1618 15.3369 21.0088C15.1839 20.8558 15 20.7793 14.7852 20.7793H8.49609C8.28125 20.7793 8.0957 20.8558 7.93945 21.0088C7.7832 21.1618 7.70508 21.349 7.70508 21.5703C7.70508 21.7916 7.7832 21.9788 7.93945 22.1318C8.0957 22.2848 8.28125 22.3613 8.49609 22.3613Z" fill="white" fill-opacity="0.85"/>
</svg>
